<svg width="423" height="458" viewBox="0 0 423 458" fill="none" xmlns="http://www.w3.org/2000/svg">
<path fill-rule="evenodd" clip-rule="evenodd" d="M204.109 191.855C210.919 186.239 228.011 183.715 235.279 189.121C242.456 194.551 243.238 203.332 246.583 211.411C249.738 209.799 254.95 212.108 255.865 215.278C257 216.775 257.051 220.978 257.833 222.988C291.882 228.859 297.05 257.611 301.149 290.253C306.571 323.376 318.878 356.427 313.534 390.511C314.23 391.603 314.78 392.663 315.288 393.922C316.503 396.164 314.937 399.336 312.483 399.213C309.31 398.912 306.166 398.5 302.975 398.371C294.133 398.039 285.282 398.078 276.436 398.2L275.229 398.217C230.647 398.818 186.068 400.002 141.484 400.316C139.867 400.319 139.075 398.748 139.291 397.198C139.726 394.078 140.13 390.955 140.551 387.833C130.006 390.851 118.795 391.61 108.28 388.151C107.544 387.339 109.994 387.779 110.382 387.656C100.705 380.493 103.595 365.403 104.452 354.534C109.783 317.294 111.662 276.089 132.257 244.312C141.167 231.342 154.23 221.075 169.24 218.764L169.656 218.703C174.045 218.069 178.936 217.865 182.774 215.278C187.09 211.547 188.928 204.651 193.469 204.586C194.968 204.565 197.008 206.62 199.203 208.015C199.366 204.947 200.894 202.357 201.23 199.978L201.258 199.774C201.609 197.001 201.127 194.504 204.109 191.855ZM277.282 291.237C267.713 284.036 242.997 287.655 242.431 288.058C241.184 288.946 240.648 289.023 239.974 290.177C239.31 290.272 238.644 290.371 237.981 290.474C236.648 290.945 237.635 292.72 239.174 292.087C238.248 296.411 240.973 299.487 242.058 303.761C242.409 305.15 242.07 307.646 242.058 309.064C242.162 310.873 244.008 313.009 243.7 314.823C242.607 321.273 236.672 327.565 239.174 333.82C240.832 337.352 245.818 339.155 249.133 340.355C256 343.21 267.967 340.247 271.956 333.82C274.086 330.392 276.551 321.744 277.82 319.061L278.102 314.806C278.795 304.227 279.412 292.84 277.282 291.237Z" fill="#EEEDDE"/>
<path fill-rule="evenodd" clip-rule="evenodd" d="M191.802 203.963C192.462 203.329 193.44 204.125 193.02 204.982C192.077 206.906 191.11 208.728 189.843 210.428C189.076 211.46 188.253 212.436 187.42 213.4C189.559 215.403 191.393 217.891 193.124 220.223C195.339 223.204 197.433 226.313 199.918 229.041C202.37 231.732 205.082 233.614 208.359 234.868L209.021 235.117C212.315 236.369 215.833 238.06 217.69 241.437C218.055 242.102 217.319 242.925 216.699 242.51C213.474 240.347 209.684 239.911 206.173 238.482C202.783 237.103 199.826 234.978 197.215 232.265C194.606 229.558 192.417 226.478 190.133 223.463C187.875 220.482 185.444 217.934 182.772 215.413C178.65 218.416 173.944 219.724 169.159 221.008L168.637 221.148C163.847 222.432 159.082 223.924 154.588 226.162C150.625 228.133 146.728 230.488 143.5 233.697C140.074 237.104 137.407 241.454 134.967 245.707C129.507 255.225 125.668 265.651 122.289 276.205C118.775 287.182 115.835 298.378 113.462 309.708C112.255 315.471 111.275 321.276 110.469 327.121C110.081 329.935 109.737 332.757 109.434 335.584C109.111 338.603 109.037 341.709 108.182 344.611C107.815 345.855 106.95 346.372 106.084 346.327L105.908 348.712C105.674 351.89 105.457 355.069 105.383 358.266C105.261 363.584 105.317 368.886 105.67 374.192L105.72 374.915C105.997 378.789 106.617 383.14 109.306 385.975C112.09 388.911 116.371 389.836 120.124 389.888C128.864 390.011 137.277 385.538 145.011 381.614C152.976 377.573 160.724 373.088 168.286 368.222C172.137 365.744 175.946 363.184 179.707 360.549C181.553 359.256 183.385 357.941 185.204 356.605C186.245 355.839 187.232 355.001 188.294 354.321C187.774 353.796 187.542 352.974 187.977 352.254C184.911 349.371 183.635 344.228 183.486 340.065C183.365 336.706 183.822 333.356 184.182 330.029C184.364 328.349 184.588 326.674 184.821 325.005C184.914 324.345 184.984 323.638 185.091 322.941C176.813 327.869 168.303 332.258 159.568 336.155C155.09 338.154 150.555 339.95 145.957 341.597L145.025 341.929C140.669 343.475 136.208 344.933 131.705 345.815C131.464 345.863 131.269 345.478 131.526 345.356C135.914 343.258 140.455 341.488 144.91 339.556L145.642 339.234C145.558 339.228 145.471 339.215 145.38 339.193C142.767 338.51 140.175 337.457 137.613 336.571C135.235 335.748 132.563 335.232 130.34 333.991C130.169 333.895 130.265 333.637 130.431 333.625C132.93 333.437 135.642 334.225 138.091 334.691L139.012 334.864C140.553 335.158 142.129 335.475 143.663 335.888C143.718 335.332 144.005 334.773 144.414 334.445C148.909 330.839 148.452 323.557 148.933 318.187L149.29 314.199C149.917 307.222 150.58 300.244 151.588 293.319C151.642 292.95 152.17 293.056 152.172 293.406C152.224 301.99 151.626 310.535 151.326 319.106L151.28 320.512C151.114 325.802 150.984 331.294 147.909 335.363C148.339 335.091 148.92 335.091 149.268 335.54C149.696 336.091 149.944 336.711 149.936 337.318C152.715 336.057 155.481 334.763 158.235 333.441C167.087 329.193 175.753 324.439 184.19 319.297C185.098 318.743 185.961 319.178 186.41 319.907L186.475 319.897C186.486 319.896 186.497 319.895 186.508 319.895L186.573 319.892C186.574 319.892 186.577 319.892 186.58 319.892C187.768 319.185 189.385 319.688 190.405 320.719C190.435 320.75 190.46 320.784 190.487 320.816C191.777 320.189 192.982 319.342 194.075 318.269C196.312 316.072 198.208 313.357 199.86 310.633C202.903 305.616 205.487 300.038 209.598 295.909C212.936 292.555 217.076 290.465 221.42 289.155C221.401 289.018 221.451 288.871 221.538 288.773C221.762 288.526 221.921 288.44 222.208 288.591C222.232 288.602 222.245 288.619 222.255 288.637L222.678 287.853C222.909 287.427 223.147 286.998 223.229 286.886C223.723 286.213 224.23 285.546 224.746 284.893C225.62 283.786 226.614 282.695 227.767 281.927C230.291 280.248 232.944 281.198 235.539 282.117C237.107 282.671 238.669 283.243 240.234 283.807L240.396 283.864C241.563 284.27 242.929 284.626 243.45 285.964C243.656 286.495 243.688 287.044 243.592 287.577C254.676 284.525 266.986 285.928 277.803 289.511C278.218 289.65 278.632 290.019 278.719 290.505C279.958 297.389 280.51 304.448 279.949 311.448C279.466 317.493 278.23 323.414 275.9 328.947L275.767 329.26C273.578 334.387 270.108 340.708 264.808 342.315C261.609 343.285 258.07 342.714 254.807 342.536C251.635 342.362 248.392 342.338 245.251 341.798C242.453 341.316 240.002 339.958 238.273 337.494C236.781 335.368 235.996 332.798 235.353 330.242C235.057 330.344 234.765 330.453 234.476 330.574C233.261 331.089 232.231 331.919 231.3 332.895C229.334 334.958 227.809 337.463 225.751 339.43C223.888 341.213 221.767 342.598 219.49 343.664C214.773 345.872 209.713 346.754 204.724 347.923L204.376 348.005C200.619 348.898 196.786 349.994 193.47 352.113C193.405 352.736 193.144 353.323 192.723 353.707C193.307 354.303 193.555 355.244 193.042 356.127C191.606 358.596 189.133 359.999 186.914 361.577L186.77 361.68C184.586 363.248 182.384 364.784 180.164 366.29C175.65 369.352 171.042 372.244 166.369 375.009C158.852 379.457 151.174 383.653 143.358 387.458C143.827 389.959 143.655 392.536 144.008 395.053L144.062 395.412C144.213 396.347 144.009 397.127 143.415 397.738L143.352 397.8L143.353 397.791L143.298 397.848L143.279 397.865L143.285 397.859C143.217 397.927 143.146 397.991 143.074 398.044L142.982 398.108C142.41 398.484 141.674 398.48 141.088 398.148L141.021 398.108L140.908 398.039C140.135 397.555 139.601 396.361 139.922 395.412C140.711 393.08 141.009 390.589 141.738 388.241L141.16 388.521L140.398 388.882C132.157 392.741 123.003 395.992 114.024 393.36C110.056 392.198 106.348 389.737 104.363 385.728C102.41 381.783 102.133 377.201 102.03 372.812C101.902 367.395 102.17 361.896 102.829 356.525C103.272 352.92 103.807 349.248 104.633 345.68C104.209 345.274 103.896 344.692 103.814 343.971C103.424 340.563 104.106 337.02 104.524 333.632C104.932 330.321 105.382 327.018 105.892 323.725C106.921 317.076 108.117 310.439 109.509 303.867C111.986 292.17 115.258 280.682 119.197 269.467L119.542 268.49C123.181 258.24 127.395 248.209 133.263 239.205C136.07 234.896 139.038 230.99 143.004 227.885C146.72 224.977 150.911 222.882 155.237 221.282C159.567 219.68 164.017 218.606 168.547 217.939C173.147 217.26 178.002 216.845 182.293 214.801C181.75 213.747 182.216 212.324 183.129 211.669C186.204 209.47 189.047 206.607 191.802 203.963ZM290.217 299.632C290.345 299.42 290.652 299.555 290.594 299.805C289.1 306.44 287.696 313.09 286.78 319.851C285.124 332.056 285.43 344.419 285.564 356.714L285.571 357.349C285.641 363.971 285.738 370.594 285.939 377.214C286.042 380.56 286.243 383.938 286.133 387.286C286.073 389.102 285.627 390.82 285.469 392.613C285.33 394.182 285.453 395.774 285.522 397.346C285.569 398.391 284.146 398.345 284.048 397.346L283.926 396.053C283.764 394.416 283.565 392.789 283.071 391.222C282.475 389.338 282.189 387.488 281.983 385.509C281.666 382.477 281.525 379.415 281.403 376.363L281.32 374.251C280.809 361.492 280.828 348.674 281.653 335.929L281.714 335.018C282.531 322.972 283.949 309.954 290.217 299.632ZM258.345 223.703C257.953 223.529 258.09 222.89 258.523 223.002L259.309 223.204C265.072 224.7 270.732 226.32 276.111 229.102C281.493 231.887 286.05 236.042 289.671 241.153C296.71 251.087 299.635 263.161 301.945 275.221C304.51 288.625 306.847 302.076 309.436 315.474L309.917 317.971C312.311 330.45 314.574 342.936 316.24 355.562L316.36 356.478C318.04 369.463 319.05 382.896 317.216 395.915C316.854 398.491 312.897 397.849 313.051 395.305C313.499 387.949 313.819 380.63 313.51 373.259C313.2 365.884 312.562 358.542 311.61 351.232C310.808 345.08 309.614 339.005 308.558 332.902L308.392 331.938C307.507 326.748 306.595 321.563 305.685 316.378L304.325 308.613C302.286 296.988 300.207 285.351 297.859 273.799L297.719 273.119C295.421 262.004 292.033 250.362 285.139 241.536C278.142 232.579 268.127 228.068 258.345 223.703ZM232.923 341.594C233.091 341.187 233.679 341.233 233.86 341.594C234.569 343.011 234.647 344.819 234.782 346.419L234.796 346.583C234.966 348.535 235.117 350.494 235.21 352.452C235.385 356.168 235.469 359.879 235.458 363.601C235.447 367.413 235.376 371.223 235.187 375.031L235.134 376.05C234.962 379.36 234.671 383.051 233.219 385.944C232.692 386.996 231.257 386.686 230.951 385.623C229.95 382.14 230.464 378.011 230.72 374.445L230.92 371.661C231.117 368.878 231.307 366.095 231.455 363.307C231.66 359.495 231.829 355.679 231.991 351.866C232.044 350.626 232.102 349.388 232.162 348.148L232.254 346.29C232.333 344.735 232.326 343.031 232.923 341.594ZM120.347 346.529L120.79 346.066C122.15 344.624 123.87 342.402 125.881 342.54C126.683 342.595 127.194 343.316 127.028 344.171C126.673 345.998 124.952 346.946 123.713 348.062C122.356 349.283 121.077 350.589 119.801 351.908C118.668 353.077 117.579 354.279 116.516 355.52L116.119 355.986C115.738 356.436 113.024 359.095 113.318 359.784L113.334 359.816C113.415 359.947 113.279 360.128 113.144 360.083C111.972 359.681 112.045 358.594 112.488 357.492C113.34 355.374 114.83 353.415 116.132 351.607C117.43 349.802 118.835 348.122 120.347 346.529ZM237.169 293.424C236.262 291.104 232.924 291.152 231.03 291.292C226.258 291.641 221.095 292.949 216.849 295.365C212.448 297.868 209.483 301.881 206.83 306.319L206.706 306.528C204.12 310.882 201.629 316.036 197.58 319.028C195.517 320.553 193.11 321.947 190.607 322.549C190.436 322.877 190.157 323.136 189.793 323.229L189.623 323.272C188.91 323.443 187.803 323.631 186.846 323.518C186.852 324.025 186.848 324.528 186.86 325.008C186.893 326.384 186.907 327.765 186.907 329.142C186.909 332.026 186.765 334.917 186.876 337.8C186.975 340.352 187.308 343.018 188.439 345.298C189.268 346.972 190.363 348.079 191.684 349.136C194.935 346.99 198.61 345.681 202.342 344.697C206.854 343.508 211.473 342.715 215.883 341.103C218.004 340.325 220.045 339.31 221.894 337.929C223.856 336.465 225.353 334.481 226.895 332.542L227.137 332.241C228.71 330.286 230.427 328.416 232.651 327.355C234.565 326.444 237.09 326.281 238.764 324.868C239.64 324.128 239.713 323.057 239.806 321.958C238.733 322.124 237.598 321.858 236.529 321.722L235.975 321.652C234.965 321.522 233.976 321.379 232.982 321.1C232.798 321.048 232.798 320.747 232.982 320.695C234.158 320.367 235.324 320.227 236.529 320.073L236.812 320.035C237.902 319.88 239.049 319.646 240.119 319.906C240.311 319.116 240.588 318.359 240.977 317.603C241.523 316.54 242.555 315.336 242.695 314.095C242.737 313.724 242.657 313.286 242.497 312.958L242.44 312.846C242.372 312.715 242.293 312.582 242.175 312.5C242.162 312.517 242.134 312.535 242.075 312.555C241.251 312.837 240.533 312.4 240.152 311.727C238.533 311.945 236.768 311.871 235.249 311.945L233.715 312.025C232.076 312.106 230.361 312.141 228.821 311.783C228.605 311.733 228.541 311.345 228.757 311.245C230.65 310.368 232.948 310.089 234.975 309.751C236.108 309.563 237.249 309.419 238.385 309.253C239.141 309.143 239.944 308.961 240.727 308.917C242.692 306.268 241.634 302.088 238.9 300.947C237.904 301.422 237.008 301.146 235.919 301.044C234.833 300.944 233.744 300.875 232.654 300.881C230.468 300.89 228.152 301.514 225.989 301.245C225.637 301.201 225.31 300.694 225.66 300.384C227.317 298.92 229.69 298.444 231.794 298.131L232.228 298.067C232.933 297.967 233.791 297.822 234.68 297.735C234.881 297.31 235.243 296.989 235.785 296.908C235.945 296.884 236.107 296.872 236.269 296.856L236.266 296.839C237.588 296.77 237.53 294.351 237.169 293.424ZM146.68 338.664C146.656 338.702 146.631 338.74 146.604 338.776L146.562 338.828L146.779 338.733L146.68 338.664ZM260.234 288.24C254.67 287.593 249.099 287.73 243.519 287.904C243.072 289.484 241.519 290.831 240.013 290.882C241.192 292.826 241.314 295.457 240.487 297.518C242.243 298.274 243.755 299.634 244.673 301.57C245.946 304.253 245.779 307.24 244.521 309.72C245.595 310.773 246.228 312.483 246.165 314.095C246.093 315.891 245.105 317.426 244.284 318.915C243.396 320.524 243.366 321.94 243.093 323.742C242.694 326.38 241.051 327.979 238.939 328.978L239.051 329.457C239.596 331.755 240.273 334.177 241.831 335.857C243.833 338.018 246.941 337.998 249.587 338.134L249.715 338.141C252.138 338.273 254.56 338.427 256.983 338.575L258.8 338.685C261.589 338.851 264.268 338.87 266.545 336.875C270.262 333.613 272.81 328.219 274.423 323.443C277.808 313.418 277.848 302.416 276.295 291.974C271.083 290.154 265.675 288.874 260.234 288.24ZM213.967 304.874L214.008 304.877C215.154 305.018 215.94 306.023 216.221 307.215C216.628 308.946 216.428 310.513 217.408 312.076C218.416 313.685 219.034 314.972 219.181 316.959C219.241 317.776 219.213 318.591 219.382 319.391L219.503 319.951C219.632 320.549 219.738 321.124 219.674 321.766C219.615 322.351 219.353 322.808 218.81 322.996C217.045 323.608 215.68 322.197 215.225 320.415C214.83 318.875 215.357 317.041 214.8 315.594C214.492 314.793 213.924 314.123 213.603 313.316C213.285 312.516 213.125 311.68 213.075 310.811C212.978 309.167 214.32 307.191 213.571 305.701C213.411 305.383 213.593 304.864 213.967 304.874ZM190.508 287.904C191.704 287.641 193.06 287.037 194.239 287.539C194.846 287.798 195.145 288.598 194.634 289.155C193.744 290.12 192.452 290.174 191.253 290.402L191.149 290.421C189.732 290.706 188.313 290.976 186.893 291.23C184.219 291.709 181.54 292.133 178.852 292.494C176.09 292.864 173.321 293.193 170.548 293.442L169.474 293.537C167.132 293.741 164.694 293.893 162.396 293.504C162.062 293.448 162.116 292.921 162.396 292.829C164.914 292.003 167.676 291.783 170.279 291.432C173.047 291.06 175.81 290.667 178.565 290.202C181.316 289.736 184.064 289.237 186.801 288.684C188.039 288.435 189.274 288.175 190.508 287.904ZM233.662 285.253C232.612 284.851 231.457 284.255 230.32 284.455C228.359 284.798 226.613 286.868 225.061 288.23L225.84 288.066C229.829 287.237 235.11 286.342 238.458 289.088C238.466 289.073 238.473 289.057 238.483 289.042C238.753 288.597 239.067 288.25 239.408 287.87C239.44 287.836 239.473 287.802 239.503 287.767L239.688 287.555L239.267 287.396C238.363 287.05 237.293 286.603 237.124 286.538L237.112 286.534C235.96 286.111 234.807 285.693 233.662 285.253ZM200.894 194.707C200.729 192.421 204.014 192.439 204.177 194.707C204.532 199.657 203.503 204.561 201.289 208.902C201.274 208.933 201.255 208.961 201.238 208.991C202.624 209.771 204.023 210.52 205.455 211.189C207.286 212.045 209.151 212.824 211.051 213.486C212.769 214.085 214.885 214.321 216.329 215.567C219.375 218.195 218.23 223.645 217.645 227.179L217.554 227.736C217.261 229.554 217.051 231.42 217.759 233.166C218.515 235.029 220.042 236.411 221.405 237.746L221.681 238.016C222.89 239.207 224.27 240.656 225.155 242.272C225.964 240.461 227.066 238.981 228.232 237.315C229.064 236.126 228.471 235.733 227.874 234.572C227.299 233.454 227.018 232.263 227.198 230.986C227.53 228.631 229.267 226.93 230.997 225.651C233.04 224.143 235.321 223.025 237.434 221.621C241.773 218.736 245.999 215.438 249.806 211.775C249.912 211.675 250.094 211.808 250.01 211.945C247.002 216.901 243.476 221.183 239.141 224.819C237.383 226.292 235.537 227.514 233.677 228.799L233.144 229.171C232.397 229.694 231.466 230.395 231.129 231.286C230.79 232.182 231.514 232.859 231.903 233.603C233.141 235.96 232.544 238.161 231.077 240.162L231.009 240.253C229.551 242.2 228.445 244.009 227.917 246.496C226.782 251.838 228.363 257.4 230.018 262.414L230.085 262.612C230.98 265.315 231.932 267.998 232.71 270.743L232.924 271.502C233.629 274.03 234.206 276.52 233.415 279.118C233.146 280.002 232.034 280.211 231.572 279.379C229.942 276.447 229.536 272.918 228.514 269.696C227.518 266.553 226.375 263.469 225.413 260.314C224.174 256.252 223.345 251.88 223.796 247.62C223.783 247.594 223.768 247.572 223.757 247.545L223.442 246.798C222.582 244.776 221.751 243.01 220.188 241.397C218.558 239.715 216.787 238.226 215.504 236.191C212.718 231.769 214.441 226.85 214.778 222.015L214.816 221.422C214.877 220.418 214.911 219.054 214.306 218.359C213.624 217.577 212.027 217.378 211.124 217.031C208.788 216.136 206.488 215.093 204.296 213.841C202.21 212.649 200.189 211.332 198.307 209.789L197.353 209.012C195.849 207.782 194.289 206.439 193.28 204.764C193.163 204.572 193.361 204.261 193.572 204.353C195.255 205.093 196.794 206.271 198.369 207.294C198.394 207.232 198.422 207.169 198.454 207.106C200.403 203.286 201.204 199.052 200.894 194.707ZM254.673 220.883C255.344 218.89 258.402 219.044 258.279 221.412C258.187 223.231 257.474 224.872 256.822 226.523L256.752 226.7C256.079 228.42 255.301 230.036 254.372 231.614C252.595 234.627 250.513 237.425 248.289 240.065C246.273 242.459 243.628 243.923 240.58 243.68C239.295 243.577 237.999 243.223 236.873 242.528C235.537 241.702 234.084 239.223 232.378 239.824C232.214 239.882 232.06 239.62 232.202 239.496C234.171 237.778 236.406 240.441 238.291 241.083C241.132 242.05 244.048 240.981 245.875 238.494C247.784 235.897 249.541 232.989 251.146 230.161C251.96 228.724 252.705 227.234 253.346 225.699C253.995 224.149 254.142 222.464 254.673 220.883ZM250.095 208.622C250.013 208.346 250.327 208.085 250.55 208.242C251.844 209.153 252.966 210.359 254.159 211.416C255.484 212.588 256.817 213.738 258.172 214.868C260.146 216.517 257.856 219.552 256.119 217.751C253.74 215.287 251.134 212.065 250.095 208.622ZM242.991 198.977C243.516 196.782 246.626 197.688 246.173 199.858L246.157 199.923C245.3 203.507 246.522 207.156 249.131 209.48L249.227 209.565C250.877 210.995 248.539 213.496 246.904 212.079C243.337 208.986 241.853 203.732 242.991 198.977Z" fill="#203239"/>
<path fill-rule="evenodd" clip-rule="evenodd" d="M269.994 129.084C268.971 120.234 265.755 110.838 262.372 102.588C254.766 85.1447 237.355 82.7431 221.746 79.1466C206.343 76.7177 190.031 74.5245 174.861 79.3707C166.333 81.6338 163.001 92.6359 164.348 101.318C165.116 106.728 167.389 111.849 169.328 116.863C173.182 127.16 175.626 138.184 175.631 149.332C175.366 156.618 174.417 164.934 182.146 168.02C189.501 171.982 190.123 182.722 199.334 188.815C203.057 196.985 213.201 197.705 220.503 199.6C225.118 200.557 229.784 201.261 234.465 201.716C248.014 203.597 258.854 199.343 265.947 186.269C270.694 178.312 274.228 169.125 273.355 159.482C272.485 149.326 271.036 139.225 269.994 129.084Z" fill="#EEEDDE"/>
<path fill-rule="evenodd" clip-rule="evenodd" d="M221.862 57.947C222.636 56.9975 223.828 57.3232 224.552 58.074C225.022 58.2242 225.479 58.4477 225.909 58.7434C226.882 58.6082 227.903 58.6082 228.859 58.646C229.09 58.5054 229.338 58.3802 229.608 58.2726C231.539 57.5081 233.249 57.8964 234.659 58.92C235.338 58.224 236.196 57.7872 237.291 57.8532C238.269 57.9123 238.966 58.4107 239.563 59.067C240.158 58.137 241.12 57.4735 242.32 57.3812C243.997 57.2521 245.608 57.9801 246.943 59.1073C247.721 58.1405 248.783 57.5849 249.964 57.5795C250.742 57.4266 251.564 57.4869 252.305 57.7295C253.381 58.0817 254.327 58.7417 255.079 59.5982C256.271 58.3625 257.73 57.4735 259.411 57.6031C261.588 57.7734 263.391 59.5065 264.23 61.6396C265.703 62.2787 267.062 63.1903 268.199 64.4898C268.259 64.5582 268.318 64.63 268.378 64.702C268.99 64.9467 269.567 65.2936 270.074 65.7503C271.682 67.1996 272.041 69.297 271.509 71.352C271.583 71.681 271.647 72.0155 271.704 72.3499C273.21 72.5979 274.578 73.5392 275.356 75.072C276.421 77.1753 276.211 79.9474 275.058 81.9554C274.562 82.8191 273.933 83.5468 273.227 84.1832C274.026 86.1491 273.643 88.4949 272.355 90.0849C272.04 90.6331 271.655 91.1279 271.221 91.5758C271.7 93.6083 270.849 95.7052 269.149 96.7912L269.005 97.1852C268.98 97.2506 268.955 97.3158 268.93 97.3804C268.911 97.4641 268.887 97.5449 268.865 97.6265C268.824 98.3477 268.605 99.0555 268.17 99.7224C267.279 101.089 266.174 101.98 265.588 103.575L265.53 103.743C265.278 104.498 264.465 105.031 263.772 104.798C267.619 113.355 269.635 122.876 271.02 132.207C271.711 136.862 272.244 141.533 272.676 146.222L273.1 150.891C273.472 155.041 273.804 159.206 273.806 163.37C273.812 172.79 271.323 181.851 265.983 189.348C260.934 196.434 253.787 201.569 245.713 203.592C237.379 205.677 227.6 204.856 220.126 200.082C217.922 198.679 219.853 195.302 222.095 196.431C226.34 198.571 230.654 200.16 235.359 200.515C239.947 200.864 244.544 200.244 248.894 198.618C256.09 195.926 262.213 190.289 266.149 183.268C268.088 179.809 269.493 176.053 270.24 172.085C271.17 167.14 271.029 162.029 270.689 157.019L270.664 156.678C269.989 147.028 269.097 137.318 267.658 127.764C266.386 119.316 264.429 111.038 261.888 102.944C260.893 101.995 259.779 101.21 258.589 100.614C249.865 100.219 241.126 100.334 232.414 100.986C224.984 101.546 217.589 102.492 210.251 103.872L209.465 104.022C207.841 104.335 206.036 104.514 204.506 105.223C203.193 105.832 202.66 107.003 202.33 108.443C201.497 112.085 201.37 116.071 201.229 119.805C201.091 123.456 201.403 127.137 201.133 130.776C200.904 133.82 200.183 136.936 198.101 139.138C197.012 140.291 195.671 140.922 194.414 141.796C193.6 142.362 193.255 142.944 193.361 143.99C193.586 146.279 195.288 149.161 193.376 151.122C193.039 151.465 192.458 151.509 192.127 151.122C191.338 150.193 190.248 149.483 189.313 148.734C188.922 148.423 189.248 147.82 189.692 148.034C190.277 148.318 190.872 148.654 191.482 148.946C190.136 147.746 188.222 147.157 186.627 146.807C185.825 146.634 184.981 146.583 184.145 146.665C183.527 146.983 182.895 147.28 182.264 147.569C181.461 147.934 180.65 148.265 179.834 148.579C177.001 151.079 175.649 155.146 176.24 159.122C176.562 161.318 177.497 163.705 179.26 164.987C181.348 166.504 184.145 165.853 186.401 166.979C188.514 168.034 189.799 170.164 190.761 172.369L191.163 173.287C192.056 175.319 192.975 177.298 194.196 179.147C195.607 181.29 197.337 183.214 199.224 184.867C200.139 185.667 201.114 186.385 202.124 187.041L202.399 187.217C203.419 187.866 204.15 188.484 204.219 189.855C204.241 190.333 203.963 190.77 203.604 191.017C202.06 192.079 200.523 190.751 199.238 189.825C197.85 188.827 196.524 187.705 195.297 186.48C192.962 184.156 190.944 181.395 189.39 178.398C188.208 176.115 187.535 172.903 185.664 171.135C184.523 170.057 182.909 170.048 181.483 169.85C180.156 169.665 178.901 169.367 177.721 168.659C172.919 165.769 171.562 158.776 172.701 153.371C172.894 152.46 173.164 151.573 173.498 150.717C171.711 151.041 169.703 149.039 170.428 147.019C170.483 146.867 170.547 146.724 170.608 146.577C169.43 145.737 168.5 144.465 168.059 142.801C167.833 141.94 167.8 141.071 167.918 140.231C167.347 139.816 166.876 139.245 166.572 138.543C165.623 138.068 164.782 137.358 164.28 136.342C163.585 134.94 163.673 133.65 164.203 132.487C164.128 132.341 164.057 132.192 163.988 132.039C162.043 130.704 160.686 128.403 160.841 125.852C160.89 125.006 161.083 124.245 161.381 123.558C161.356 123.471 161.332 123.381 161.309 123.295C159.682 122.398 158.336 120.926 157.856 118.96C157.376 116.982 157.942 115.01 159.073 113.492C157.418 112.181 156.422 110.35 157.026 107.58C157.272 106.454 157.765 105.429 158.433 104.565C158.43 104.539 158.424 104.512 158.419 104.485L158.264 104.355C156.221 102.608 155.047 100.383 156.301 97.646C156.863 96.4154 157.666 95.5576 158.609 94.993L158.656 94.8317C157.98 93.2632 157.751 91.5214 158.218 89.69C158.598 88.1815 159.5 86.9803 160.653 86.1829C160.576 85.5073 160.587 84.7877 160.711 84.0075C160.918 82.6903 161.522 81.5401 162.405 80.7245C162.438 80.5509 162.479 80.381 162.526 80.2104C162.824 79.168 163.381 78.0357 164.026 77.1958C164.559 76.4997 165.154 76.2458 165.883 76.2188C165.838 75.5768 165.869 74.9253 165.99 74.265C166.363 72.2277 167.56 70.3123 169.333 69.443C170.061 69.0875 170.828 68.9831 171.567 69.0695C172.196 67.6354 173.424 66.5962 174.932 66.372C175.52 66.2823 176.066 66.288 176.568 66.369C176.852 66.2254 177.147 66.0972 177.456 65.9804C177.66 65.9027 177.867 65.831 178.074 65.7596C178.772 64.8214 179.69 64.0712 180.763 63.6204C182.002 63.0976 183.262 63.1511 184.379 63.5903L184.735 63.5096C185.292 62.464 186.18 61.6543 187.546 61.2868C189.095 60.8716 190.687 61.4512 191.906 62.5061C191.911 62.5061 191.918 62.5061 191.926 62.5027C192.563 60.9582 193.652 59.8826 195.481 59.9573C196.621 60.0052 197.649 60.6178 198.443 61.4903C198.884 61.4302 199.326 61.3764 199.77 61.3229C200.24 60.7281 200.761 60.1727 201.336 59.6739C202.28 58.855 203.507 58.921 204.202 60.0739C204.355 60.3248 204.494 60.5787 204.635 60.8327L205.273 60.7849C206.023 59.6884 207.047 58.9476 208.448 58.888C209.732 58.8309 210.649 59.5124 211.346 60.4652C211.914 60.4503 212.486 60.4386 213.056 60.4294C213.721 59.5958 214.504 58.8609 215.398 58.2514C216.083 57.7853 217.092 57.9439 217.647 58.5655C218.021 58.9878 218.37 59.4289 218.694 59.8853C219.529 58.8708 220.657 58.2025 221.862 57.947ZM181.268 152.818C182.556 152.023 184.288 152.884 185.535 153.559C187.055 154.381 188.564 155.621 189.494 157.175C190.759 159.289 187.783 160.998 186.45 159.101C185.632 157.934 184.978 156.756 183.985 155.734C183.077 154.796 181.762 154.169 181.24 152.932C181.221 152.89 181.227 152.842 181.268 152.818ZM182.174 101.476L182.198 101.401C182.564 100.316 180.965 99.8481 180.602 100.925C180.052 102.556 180.686 104.33 182.174 105.034C182.586 105.23 183.057 105.162 183.306 104.713C183.515 104.335 183.418 103.68 183.009 103.487C182.172 103.09 181.892 102.39 182.174 101.476ZM168.4 98.441C169.2 97.6763 168.026 96.4121 167.229 97.1737C166.486 97.8842 165.935 98.8491 166.078 99.9591C166.224 101.09 167.012 101.889 167.874 102.453C168.787 103.052 169.62 101.502 168.709 100.905L168.607 100.837C168.224 100.58 167.777 100.226 167.712 99.7203C167.643 99.1826 168.063 98.7628 168.4 98.441ZM172.944 84.9454L173 84.9003C173.86 84.2358 173.034 82.6806 172.165 83.3525C171.368 83.9688 170.728 84.7694 170.661 85.8737C170.596 86.9468 171.1 87.8772 171.759 88.6322C172.492 89.472 173.661 88.2029 172.929 87.3648C172.216 86.548 172.077 85.6567 172.944 84.9454Z" fill="#203239"/>
<path fill-rule="evenodd" clip-rule="evenodd" d="M247.341 175.479C247.764 174.682 248.74 173.944 249.63 174.057C253.624 174.564 253.617 179.809 252.075 182.871C250.708 185.585 247.878 187.179 245.046 186.946C242.071 186.701 239.535 184.806 238.421 181.792C237.682 179.798 237.341 176.115 239.304 174.776C239.341 174.751 239.401 174.757 239.43 174.793C240.371 175.979 240.408 177.759 241.231 179.079C241.998 180.308 243.188 181.321 244.583 181.478C245.625 181.596 246.678 181.188 247.086 180.175C247.306 179.628 247.28 179.33 247.198 178.954L247.122 178.626C246.861 177.478 246.745 176.604 247.341 175.479ZM248.409 152.479C250.492 153.85 253.666 157.047 251.425 160.447C248.788 163.445 244.99 160.007 243.119 158.454C241.384 157.248 239.435 160.347 241.045 161.753C254.566 172.597 260.054 152.838 249.463 150.866C248.297 150.649 247.864 152.055 248.409 152.479ZM226.415 143.076C227.693 140.998 230.611 141.303 231.316 143.768C231.697 145.104 231.17 146.304 231.197 147.639C231.22 148.765 231.151 150.02 230.833 151.112C230.105 153.6 228.04 155.357 225.596 155.285C223.16 155.211 221.015 153.542 219.994 151.189C218.97 148.827 219.187 146.385 219.934 143.983C219.97 143.869 220.11 143.812 220.194 143.91C221.078 144.926 221.724 146 222.394 147.14L223.079 148.306C223.604 149.185 224.365 150.309 225.344 150.238L225.49 150.223C225.763 150.197 225.721 150.255 225.932 149.854C226.028 149.668 226.01 149.322 226.057 149.103L226.074 149.03L226.065 148.989C226.044 148.883 226.023 148.683 226.007 148.335L226.003 148.259C225.933 146.635 225.509 144.547 226.415 143.076ZM258.821 144.458C258.591 141.8 262.041 141.211 263.187 143.177C263.785 144.202 263.96 145.49 264.092 146.711L264.153 147.289C264.289 148.543 264.344 149.847 263.841 151.016C263.05 152.858 261.329 153.83 259.474 153.676C257.701 153.529 256.085 152.416 255.232 150.727C254.472 149.219 253.716 146.276 254.639 144.703C254.696 144.608 254.807 144.595 254.884 144.669C255.756 145.508 255.898 147.038 256.416 148.13C256.952 149.257 257.762 150.355 258.992 150.527C260.167 150.69 260.618 149.994 260.317 148.779C259.93 147.212 258.967 146.146 258.821 144.458ZM227.347 127.278L227.911 127.044C229.843 126.253 232.496 125.339 234.067 127.041C235.037 128.091 235.221 129.637 234.529 130.917C233.691 132.469 232.187 132.507 230.735 132.736C229.085 132.996 227.404 133.49 225.868 134.194C224.135 134.988 222.528 135.978 220.954 137.083C219.456 138.133 217.965 139.849 216.174 140.173C216.101 140.186 216.017 140.152 215.999 140.065C215.592 138.168 216.722 136.301 217.731 134.821C218.952 133.029 220.431 131.558 222.084 130.239C223.681 128.966 225.503 128.046 227.347 127.278ZM262.449 134.023L262.622 133.99C263.794 133.779 264.855 133.827 265.738 134.833C266.413 135.6 266.673 136.594 266.352 137.608C266.055 138.543 265.392 139.493 264.43 139.689C261.18 140.351 257.582 140.242 254.317 139.741C252.822 139.511 251.316 139.23 249.86 138.788L249.191 138.578C247.976 138.202 246.586 137.809 245.703 136.841C245.386 136.493 245.568 135.996 245.948 135.835C247.488 135.182 249.597 135.529 251.24 135.478C253.15 135.419 255.062 135.264 256.963 135.05C258.82 134.841 260.618 134.387 262.449 134.023Z" fill="#203239"/>
<path fill-rule="evenodd" clip-rule="evenodd" d="M223.836 183.199C226.069 177.532 230.944 173.367 236.555 171.843C240.675 170.729 245.001 170.765 249.201 171.207C251.402 171.438 253.762 171.626 255.837 172.512C257.608 173.268 259.051 174.697 260.137 176.375C261.428 178.364 262.307 180.64 262.925 182.972C263.012 183.305 263.094 183.638 263.171 183.975C262.902 185.735 262.333 187.233 260.828 188.34C259.359 189.42 257.607 189.862 255.86 190.019C255.688 189.93 255.523 189.838 255.371 189.745C252.648 188.056 250.733 184.067 247.297 184.607C244.23 185.089 242.212 189.269 240.388 191.718C234.535 192.458 228.686 190.552 223.924 186.926C223.681 185.686 223.668 184.434 223.836 183.199ZM267.149 178.9C266.681 177.476 266.09 176.098 265.392 174.799C263.081 170.505 259.533 167.082 255.321 165.126C245.358 160.506 232.467 163.763 224.421 171.341C221.673 173.933 218.893 177.739 218.053 181.834C217.802 181.888 217.564 182.03 217.37 182.229C211.556 178.264 205.57 174.45 200.886 168.955C197.484 164.962 195.118 160.236 193.669 155.044C193.55 154.617 192.914 154.68 192.934 155.153C192.939 155.263 192.944 155.374 192.949 155.484C192.889 155.28 192.603 155.385 192.581 155.583C191.802 161.89 190.827 168.578 191.725 174.919C192.261 178.702 193.848 181.471 195.969 184.462C198.242 187.668 200.814 190.65 203.445 193.509C205.115 195.324 206.857 197.418 208.902 198.749C211.279 200.296 213.975 201.471 216.512 202.664C219.093 203.882 221.713 205.006 224.382 205.981C229.718 207.938 235.232 209.289 240.844 209.881C245.336 210.353 250.471 210.868 254.777 209.037C258.076 207.635 260.739 205.099 262.853 202.049C265.152 198.725 266.97 194.94 267.976 190.949C269.02 186.803 267.369 179.567 267.149 178.9Z" fill="#203239"/>
</svg>
